<svg version="1" xmlns="http://www.w3.org/2000/svg" width="933.333" height="933.333" viewBox="0 0 700.000000 700.000000"><path d="M127.3 143.6c-4.5 1.6-7 3.9-8.2 7.8-.6 1.8-.9 20.1-.8 44.8.2 40.5.3 41.7 2.3 44.5 4.3 5.8 2.7 5.7 65.9 5.7 64 0 61.8.2 66.2-6.3l2.3-3.4V195c0-25.8-.4-42.8-1-44.6-.6-1.6-2.7-4-4.8-5.4l-3.7-2.4-57.4-.1c-41.2 0-58.4.3-60.8 1.1zM373.3 143.6c-9 3.1-8.9 2.9-8.9 51.9.1 39.4.2 42.2 2 44.8 4.3 6.4-1.7 6 106.1 6.2 92.4.1 98.2 0 101.7-1.7 7.5-3.6 7.3-2.3 7.5-48.3.1-23.5-.3-42.6-.8-44.7-.6-2.5-2.2-4.7-4.6-6.5l-3.6-2.8h-98.1c-70.6 0-98.9.3-101.3 1.1zM301.9 161.4c-10.1 2.6-18.1 9.5-22.8 19.6-3.4 7.3-3.5 19-.3 26.3 4.6 10.3 12.8 17.4 23.2 20 25 6.4 47.6-16.3 41.3-41.3-4.6-18-23.4-29.2-41.4-24.6zM71.5 299.4c-3.5 1.6-6 4.1-7.1 7.6-1 3.1-1.2 81.9-.2 85.7.4 1.6 2.1 4.2 3.8 5.8l3.1 3 173.7.3c121.9.2 174.8 0 177.4-.8 2.3-.7 4.8-2.4 6.5-4.6l2.7-3.6v-42.2c0-40.2-.1-42.5-2-45.7-1.1-1.9-3.5-4.2-5.4-5.1-3.2-1.6-14.8-1.7-176.4-1.7-139.5 0-173.7.3-176.1 1.3zM548.4 299.4c-1.7.8-4.1 2.8-5.4 4.6l-2.2 3.2-.1 42.8v42.8l2.3 3.2c4.2 5.9 5.2 6 46.2 6 35.2 0 37.5-.1 40.5-2 7-4.2 6.8-2.7 6.7-49.4 0-45.9 0-45.8-5.7-50-2.8-2-4-2.1-41-2.3-30.1-.2-38.9.1-41.3 1.1zM478.2 317c-24.8 6-33.9 38.5-15.8 56.5 7.7 7.7 13.2 9.9 24.1 10 7.7 0 9.8-.4 14.5-2.7 18.9-9.1 25.6-32.5 14-49.4-4.5-6.6-8.7-10.1-15.5-12.9-5.8-2.3-15.3-3-21.3-1.5zM120.5 455.5c-7.4 3.7-7.4 3.4-7.4 49.7 0 45.2 0 45.6 6 49.9l3.3 2.3H225c114.9 0 105.8.6 109.7-7.2 1.7-3.5 1.8-7 1.8-44.7 0-45.5-.1-45.9-6.3-49.7l-3.7-2.2-101-.1c-99.2 0-101.1 0-105 2zM452.5 455.5c-7 3.5-7 2.9-7 50.6v42.6l2.7 3.5c1.8 2.4 4 3.8 6.5 4.4 4.4 1.1 112.3 1.1 116.9 0 1.7-.4 4.4-2.1 6-3.7l2.9-3 .3-43.2c.2-41.4.1-43.3-1.7-46.4-4.4-7.1-1-6.7-65-6.8-55.7 0-57.7.1-61.6 2zM383.2 472.6c-7.3 1.9-10.7 3.9-15.9 9-6.7 6.7-9.7 14-9.7 23.9 0 6.6.4 9 2.6 13.6 3.4 7.3 10.3 14.3 17.5 17.7 8 3.6 19.3 3.6 27.3-.1 17-7.8 24.7-26.6 17.9-43.8-2.6-6.7-6.3-11.3-12.4-15.3-8.7-5.8-17.9-7.5-27.3-5z"/></svg>