<?xml version="1.0" standalone="no"?>
<!DOCTYPE svg PUBLIC "-//W3C//DTD SVG 20010904//EN"
 "http://www.w3.org/TR/2001/REC-SVG-20010904/DTD/svg10.dtd">
<svg version="1.0" xmlns="http://www.w3.org/2000/svg"
 width="700.000000pt" height="700.000000pt" viewBox="0 0 700.000000 700.000000"
 preserveAspectRatio="xMidYMid meet">
<metadata>
Created by potrace 1.11, written by Peter Selinger 2001-2013
</metadata>
<g transform="translate(0.000000,700.000000) scale(0.100000,-0.100000)"
fill="#000000" stroke="none">
<path d="M2245 6350 c-905 -5 -973 -6 -998 -23 -58 -38 -58 -37 -55 -505 3
-409 4 -428 23 -454 42 -57 -97 -54 2297 -53 1817 0 2217 3 2233 14 11 7 29
25 40 39 19 26 20 45 23 454 3 468 3 467 -55 505 -25 17 -106 18 -1283 23
-690 3 -1692 3 -2225 0z"/>
<path d="M709 4782 c-16 -8 -39 -29 -51 -45 -22 -31 -22 -36 -23 -446 -1 -229
3 -427 8 -441 11 -33 46 -70 77 -82 34 -13 1166 -13 1200 0 38 15 68 53 77 97
4 22 8 218 7 435 -1 433 -1 436 -61 476 -27 18 -56 19 -616 19 -492 1 -593 -1
-618 -13z"/>
<path d="M3464 4788 c-16 -4 -43 -21 -59 -38 l-30 -31 -3 -432 c-2 -415 -1
-433 17 -464 43 -69 -67 -65 1472 -65 971 0 1399 4 1421 11 19 6 44 27 58 47
l25 37 0 411 c0 241 -3 425 -9 445 -6 18 -25 45 -45 60 l-34 26 -1392 0 c-765
1 -1405 -2 -1421 -7z"/>
<path d="M2584 4601 c-57 -19 -95 -44 -140 -93 -142 -152 -113 -397 60 -512
120 -79 273 -77 388 6 58 42 74 62 109 135 26 52 31 74 30 135 0 83 -9 122
-45 182 -77 131 -255 196 -402 147z"/>
<path d="M770 3242 c-54 -7 -86 -24 -110 -58 l-24 -36 -1 -412 c0 -242 3 -425
9 -445 6 -18 25 -45 45 -60 l34 -26 1403 0 c1354 0 1404 1 1438 19 66 35 66
37 66 503 0 397 -1 420 -20 450 -42 70 66 65 -1449 67 -751 0 -1377 0 -1391
-2z"/>
<path d="M5115 3238 c-60 -8 -101 -46 -112 -103 -5 -22 -8 -218 -7 -435 1
-433 1 -436 61 -476 27 -18 58 -19 623 -19 573 0 596 1 624 20 60 40 61 49 61
511 -1 401 -2 421 -20 446 -45 61 -36 60 -635 62 -301 0 -569 -2 -595 -6z"/>
<path d="M4285 3059 c-128 -16 -236 -110 -276 -239 -50 -161 29 -334 188 -410
74 -36 197 -34 278 3 170 80 246 282 168 448 -67 142 -204 218 -358 198z"/>
<path d="M1206 1670 c-17 -8 -40 -30 -53 -48 -21 -32 -21 -38 -22 -448 -1
-459 0 -467 61 -504 32 -20 48 -20 843 -20 628 0 816 3 835 13 13 7 35 28 48
47 l23 34 -3 431 -3 431 -25 31 c-14 17 -36 35 -50 39 -14 4 -385 8 -824 9
-702 1 -803 -1 -830 -15z"/>
<path d="M4379 1671 c-18 -9 -42 -29 -53 -44 -20 -27 -21 -39 -22 -450 -1
-383 1 -425 17 -457 36 -73 0 -70 734 -70 703 0 684 -1 730 50 19 21 20 36 20
464 0 425 -1 442 -20 468 -40 53 -22 52 -722 53 -572 1 -655 -1 -684 -14z"/>
<path d="M3537 1499 c-101 -24 -190 -98 -233 -192 -40 -87 -40 -196 -2 -279
113 -243 439 -272 595 -53 45 64 68 180 51 259 -20 92 -93 192 -168 231 -75
39 -169 52 -243 34z"/>
</g>
</svg>
